<?xml version="1.0" encoding="utf-8"?>
<!-- Generator: Adobe Illustrator 16.2.0, SVG Export Plug-In . SVG Version: 6.00 Build 0)  -->
<!DOCTYPE svg PUBLIC "-//W3C//DTD SVG 1.1//EN" "http://www.w3.org/Graphics/SVG/1.1/DTD/svg11.dtd">
<svg version="1.1" id="Laag_1" xmlns="http://www.w3.org/2000/svg" xmlns:xlink="http://www.w3.org/1999/xlink" x="0px" y="0px"
	 width="306.79px" height="306.79px" viewBox="0 0 306.79 306.79" enable-background="new 0 0 306.79 306.79" xml:space="preserve">
<path fill="#FFFFFF" d="M306.79,293.596c0,7.288-5.906,13.194-13.194,13.194H13.192C5.906,306.79,0,300.884,0,293.596V13.192
	C0,5.907,5.906,0,13.192,0h280.403c7.288,0,13.194,5.907,13.194,13.192V293.596z"/>
<path fill="#211646" d="M292.911,280.912c0,6.627-5.373,12-12,12H25.878c-6.627,0-12-5.373-12-12V25.878c0-6.627,5.373-12,12-12
	h255.033c6.627,0,12,5.373,12,12V280.912z"/>
<path fill="#F7A800" d="M153.396,96.433c-1.101,0-2.193,0.036-3.279,0.096v19.633c1.082-0.092,2.173-0.15,3.278-0.15
	c13.022,0,24.543,6.53,31.479,16.482l14.719-13.563C188.82,105.246,172.123,96.433,153.396,96.433z"/>
<path fill="#F7A800" d="M237.141,84.333l3.478-3.205v-67.25h-90.501V45.84c1.09-0.032,2.182-0.053,3.279-0.053
	C186.854,45.788,216.878,60.751,237.141,84.333z"/>
<path fill="#F7A800" d="M153.396,66.127c-1.098,0-2.19,0.027-3.279,0.066v17.047c1.088-0.049,2.18-0.083,3.279-0.083
	c22.58,0,42.76,10.449,55.981,26.757l12.8-11.794C205.645,78.567,180.948,66.127,153.396,66.127z"/>
<path fill="#F7A800" d="M153.396,123.078c-1.107,0-2.201,0.06-3.278,0.172v41.271l29.504-27.186
	C174.034,128.761,164.369,123.078,153.396,123.078z"/>
<path fill="#F9E4FF" d="M115.042,154.366c0,5.354,1.086,10.538,3.226,15.41c0.785,1.786,2.869,2.598,4.655,1.814
	c1.786-0.785,2.598-2.869,1.813-4.656c-1.744-3.971-2.629-8.199-2.629-12.568c0-16.146,12.293-29.472,28.01-31.116v-7.088
	C130.499,117.832,115.042,134.323,115.042,154.366z"/>
<path fill="#F9E4FF" d="M184.683,154.366c0,13.289-8.425,25.16-20.964,29.543c-1.841,0.643-2.813,2.658-2.169,4.5
	c0.509,1.457,1.875,2.369,3.334,2.369c0.388,0,0.781-0.064,1.167-0.199c15.37-5.372,25.697-19.926,25.697-36.213
	c0-8.125-2.547-15.663-6.874-21.872l-5.253,4.84C182.817,142.24,184.683,148.087,184.683,154.366z"/>
<path fill="#F7EFDF" d="M153.396,116.012c-1.105,0-2.197,0.058-3.278,0.15v7.088c1.078-0.112,2.171-0.172,3.278-0.172
	c10.974,0,20.639,5.684,26.226,14.257l5.253-4.84C177.938,122.542,166.418,116.012,153.396,116.012z"/>
<path fill="#D1BDFC" d="M81.334,155.22c0,10.059,2.04,19.799,6.061,28.953c1.475,3.357,5.391,4.881,8.746,3.408
	c3.356-1.475,4.882-5.391,3.408-8.746c-3.277-7.461-4.939-15.408-4.939-23.615c0-31.314,24.613-56.982,55.508-58.69V83.241
	C111.899,84.962,81.334,116.584,81.334,155.22z"/>
<path fill="#D1BDFC" d="M212.182,155.22c0,24.967-15.83,47.273-39.391,55.508c-3.459,1.207-5.283,4.994-4.076,8.453
	c0.957,2.738,3.523,4.451,6.268,4.451c0.727,0,1.465-0.121,2.189-0.373c28.881-10.094,48.283-37.438,48.283-68.039
	c0-17.153-6.033-32.917-16.077-45.305l-9.785,9.016C207.467,128.933,212.182,141.532,212.182,155.22z"/>
<path fill="#F7E0AD" d="M153.396,83.158c-1.1,0-2.191,0.034-3.279,0.083v13.289c1.086-0.06,2.178-0.096,3.279-0.096
	c18.727,0,35.424,8.813,46.196,22.498l9.785-9.016C196.156,93.607,175.977,83.158,153.396,83.158z"/>
<path fill="#8D7BB6" d="M237.141,84.333l-14.963,13.788c13.267,15.691,21.279,35.96,21.279,58.07
	c0,38.252-24.252,72.426-60.345,85.041c-5.3,1.85-8.098,7.652-6.244,12.951c1.466,4.195,5.397,6.819,9.599,6.819
	c1.113,0,2.243-0.186,3.357-0.572c44.243-15.464,73.972-57.354,73.972-104.239C263.796,128.772,253.746,103.659,237.141,84.333z"/>
<path fill="#8D7BB6" d="M42.994,156.19c0,15.41,3.125,30.334,9.285,44.359c2.26,5.143,8.26,7.475,13.398,5.221
	c5.143-2.258,7.479-8.26,5.223-13.4c-5.021-11.432-7.568-23.605-7.568-36.18c0-48.563,38.639-88.264,86.785-89.997V45.84
	C90.753,47.581,42.994,96.412,42.994,156.19z"/>
<path fill="#F7D48A" d="M153.396,45.788c-1.097,0-2.189,0.021-3.279,0.053v20.353c1.089-0.039,2.181-0.066,3.279-0.066
	c27.552,0,52.248,12.44,68.781,31.993l14.963-13.788C216.878,60.751,186.854,45.788,153.396,45.788z"/>
<polygon fill="#FFFFFF" points="60.539,293.912 149.843,293.912 149.843,165.474 60.539,249.041 "/>
</svg>
